<svg xmlns="http://www.w3.org/2000/svg" viewBox="0 0 700 820" role="img" aria-labelledby="title desc">
<title id="title">RRR IKON 2 BHK floor plan</title>
<desc id="desc">Illustrated floor plan with balcony, kitchen, utility, common bedroom, dining, two toilets, master bedroom and family living.</desc>
<defs>
<filter id="shadow" x="-10%" y="-10%" width="120%" height="120%"><feDropShadow dx="0" dy="5" stdDeviation="7" flood-color="#6c604f" flood-opacity=".18"/></filter>
<linearGradient id="wall" x1="0" y1="0" x2="1" y2="1"><stop offset="0" stop-color="#f8f4e8"/><stop offset="1" stop-color="#eee5d3"/></linearGradient>
<linearGradient id="wood" x1="0" y1="0" x2="1" y2="1"><stop offset="0" stop-color="#b77a3c"/><stop offset="1" stop-color="#7f4c28"/></linearGradient>
</defs>
<rect width="700" height="820" rx="14" fill="#fbf8f0"/>
<g transform="translate(45 32)" filter="url(#shadow)">
<rect x="0" y="0" width="610" height="748" fill="url(#wall)" stroke="#6e6658" stroke-width="4"/>
<rect x="0" y="0" width="250" height="104" fill="#edf0df" stroke="#6e6658" stroke-width="4"/>
<text x="125" y="37" text-anchor="middle" font-family="Arial,sans-serif" font-size="16" font-weight="700" fill="#2d352f">BALCONY</text><text x="125" y="59" text-anchor="middle" font-family="Arial,sans-serif" font-size="13" fill="#3f4942">11'0" × 4'0"</text>
<rect x="250" y="0" width="245" height="180" fill="#f6f0df" stroke="#6e6658" stroke-width="4"/>
<rect x="250" y="0" width="90" height="32" fill="url(#wood)"/><rect x="340" y="0" width="55" height="32" fill="#e8dcc4" stroke="#7b6b54"/><rect x="395" y="0" width="55" height="32" fill="#d9d0bc" stroke="#7b6b54"/>
<text x="373" y="92" text-anchor="middle" font-family="Arial,sans-serif" font-size="18" font-weight="700" fill="#303831">KITCHEN</text><text x="373" y="115" text-anchor="middle" font-family="Arial,sans-serif" font-size="13" fill="#3f4942">11'0" × 10'0"</text>
<path d="M300 145 H475 V170 H340" fill="none" stroke="#7b5a3a" stroke-width="14" stroke-linecap="round"/><circle cx="445" cy="155" r="7" fill="#6e7b6b"/>
<rect x="495" y="0" width="115" height="180" fill="#eef1df" stroke="#6e6658" stroke-width="4"/>
<text x="552" y="88" text-anchor="middle" font-family="Arial,sans-serif" font-size="15" font-weight="700" fill="#303831">UTILITY</text><text x="552" y="109" text-anchor="middle" font-family="Arial,sans-serif" font-size="12" fill="#3f4942">8'0" × 3'0"</text>
<rect x="0" y="104" width="250" height="245" fill="#f2ead8" stroke="#6e6658" stroke-width="4"/>
<text x="125" y="238" text-anchor="middle" font-family="Arial,sans-serif" font-size="17" font-weight="700" fill="#303831">C. BEDROOM</text><text x="125" y="260" text-anchor="middle" font-family="Arial,sans-serif" font-size="13" fill="#3f4942">10'0" × 10'0"</text>
<rect x="50" y="140" width="110" height="60" rx="4" fill="#ddd2c1" stroke="#8a765e" stroke-width="2"/><rect x="58" y="148" width="94" height="44" fill="#8a6a50"/><rect x="38" y="150" width="18" height="38" fill="#6d4f3d"/><rect x="154" y="150" width="18" height="38" fill="#6d4f3d"/>
<rect x="250" y="180" width="245" height="230" fill="#fbf7ec" stroke="#6e6658" stroke-width="4"/>
<text x="373" y="245" text-anchor="middle" font-family="Arial,sans-serif" font-size="17" font-weight="700" fill="#303831">DINING</text><text x="373" y="267" text-anchor="middle" font-family="Arial,sans-serif" font-size="13" fill="#3f4942">11'0" × 10'0"</text>
<rect x="318" y="300" width="110" height="70" rx="10" fill="#a66a35"/><ellipse cx="373" cy="335" rx="44" ry="25" fill="#c88b50"/><circle cx="325" cy="335" r="12" fill="#79502f"/><circle cx="421" cy="335" r="12" fill="#79502f"/>
<rect x="495" y="180" width="115" height="568" fill="#f0e4cf" stroke="#6e6658" stroke-width="4"/>
<text x="552" y="370" text-anchor="middle" font-family="Arial,sans-serif" font-size="15" font-weight="700" fill="#303831">FAMILY</text><text x="552" y="392" text-anchor="middle" font-family="Arial,sans-serif" font-size="15" font-weight="700" fill="#303831">LIVING</text><text x="552" y="415" text-anchor="middle" font-family="Arial,sans-serif" font-size="12" fill="#3f4942">15'0" × 11'0"</text>
<rect x="518" y="470" width="68" height="42" rx="4" fill="#8d6d55"/><rect x="527" y="462" width="50" height="11" fill="#6d5140"/><rect x="525" y="526" width="55" height="34" rx="4" fill="#c7a67e"/>
<rect x="0" y="349" width="250" height="98" fill="#cfe7ea" stroke="#6e6658" stroke-width="4"/>
<text x="80" y="385" text-anchor="middle" font-family="Arial,sans-serif" font-size="13" font-weight="700" fill="#294044">TOILET</text><text x="80" y="404" text-anchor="middle" font-family="Arial,sans-serif" font-size="11" fill="#3f4942">7'0" × 4'0"</text><ellipse cx="170" cy="395" rx="19" ry="25" fill="#f7f5ee" stroke="#7b8c8d" stroke-width="2"/><rect x="166" y="372" width="8" height="12" fill="#8b9b9b"/>
<rect x="250" y="410" width="245" height="98" fill="#cfe7ea" stroke="#6e6658" stroke-width="4"/>
<text x="330" y="446" text-anchor="middle" font-family="Arial,sans-serif" font-size="13" font-weight="700" fill="#294044">TOILET</text><text x="330" y="465" text-anchor="middle" font-family="Arial,sans-serif" font-size="11" fill="#3f4942">7'0" × 4'0"</text><ellipse cx="415" cy="457" rx="19" ry="25" fill="#f7f5ee" stroke="#7b8c8d" stroke-width="2"/>
<rect x="0" y="447" width="250" height="301" fill="#f2ead8" stroke="#6e6658" stroke-width="4"/>
<text x="125" y="560" text-anchor="middle" font-family="Arial,sans-serif" font-size="17" font-weight="700" fill="#303831">M. BEDROOM</text><text x="125" y="582" text-anchor="middle" font-family="Arial,sans-serif" font-size="13" fill="#3f4942">15'0" × 10'0"</text>
<rect x="58" y="635" width="135" height="55" rx="6" fill="#8d6d55"/><rect x="72" y="644" width="48" height="30" rx="3" fill="#d7c7b4"/><rect x="131" y="644" width="48" height="30" rx="3" fill="#d7c7b4"/>
<rect x="470" y="705" width="140" height="43" fill="#eadfc9" stroke="#6e6658" stroke-width="4"/><text x="540" y="732" text-anchor="middle" font-family="Arial,sans-serif" font-size="12" font-weight="700" fill="#4c4b43">ENTRY</text>
<circle cx="30" cy="30" r="9" fill="#6e8d67"/><circle cx="575" cy="30" r="9" fill="#6e8d67"/>
</g></svg>